PathFileType	4	(X/Y/Z)	 s01c0201.trc
DataRate	CameraRate	NumFrames	NumMarkers	Units	OrigDataRate	OrigDataStartFrame	OrigNumFrames
200	200	7	48	mm	200	1	2000
Frame#	Time	racr			lacr			c7			jug			rlel			rdr			llel			ldr			s2			lic			ric			lasi			rasi			rpsi			lpsi			rgt			lgt			rth1			rth2			rth3			rth4			rlfc			rsh1			rsh2			rsh3			rsh4			rlmal			rmmal			rcal			rtoe			rmt5			lth1			lth2			lth4			lth3			llfc			lsh1			lsh2			lsh3			lsh4			llmal			lmmal			lcal			ltoe			lmt5			SBIKE			LBIKE			RBIKE			
		X1	Y1	Z1	X2	Y2	Z2	X3	Y3	Z3	X4	Y4	Z4	X5	Y5	Z5	X6	Y6	Z6	X7	Y7	Z7	X8	Y8	Z8	X9	Y9	Z9	X10	Y10	Z10	X11	Y11	Z11	X12	Y12	Z12	X13	Y13	Z13	X14	Y14	Z14	X15	Y15	Z15	X16	Y16	Z16	X17	Y17	Z17	X18	Y18	Z18	X19	Y19	Z19	X20	Y20	Z20	X21	Y21	Z21	X22	Y22	Z22	X23	Y23	Z23	X24	Y24	Z24	X25	Y25	Z25	X26	Y26	Z26	X27	Y27	Z27	X28	Y28	Z28	X29	Y29	Z29	X30	Y30	Z30	X31	Y31	Z31	X32	Y32	Z32	X33	Y33	Z33	X34	Y34	Z34	X35	Y35	Z35	X36	Y36	Z36	X37	Y37	Z37	X38	Y38	Z38	X39	Y39	Z39	X40	Y40	Z40	X41	Y41	Z41	X42	Y42	Z42	X43	Y43	Z43	X44	Y44	Z44	X45	Y45	Z45	X46	Y46	Z46	X47	Y47	Z47	X48	Y48	Z48	
1	0.0050	448.293996	1349.703979	-76.350064	461.032796	1348.138098	-411.035337	408.934765	1417.349179	-236.909442	445.326050	1260.243420	-241.144850	531.497918	1086.653146	12.128500	706.425398	895.405636	-31.435851	528.034646	1086.022327	-510.214584	702.568921	901.584667	-446.093190	-73.704425	1141.056699	-252.340164	124.336420	1158.643990	-429.585998	86.307212	1138.461798	-95.417505	103.317501	1104.723815	-398.314038	112.975597	1089.363202	-121.728911	-44.544748	1178.172919	-199.207894	-48.867372	1186.132928	-302.588393	26.539958	1019.116618	-70.419154	45.895786	1042.066271	-460.650881	94.982948	897.495715	-54.140518	141.912994	829.846060	-62.556004	187.912253	753.257766	-76.921000	188.502897	859.459258	-71.729329	222.070537	650.593073	-100.273054	158.046541	550.223325	-68.068393	131.940555	469.345707	-69.528845	96.133716	388.110067	-81.218108	178.793980	452.627399	-103.999985	43.090022	269.917310	-100.938245	96.738930	282.786360	-174.090295	-1.313271	241.334841	-158.279931	262.907442	187.201515	-130.899017	152.212259	169.910919	-67.216329	149.666374	977.903657	-458.593221	238.628380	976.368761	-464.597224	241.530910	1030.469393	-454.671192	323.385833	966.286608	-452.942734	425.968668	914.657467	-428.583051	346.086291	836.469927	-450.815872	302.090097	762.142008	-441.483136	257.332262	690.766344	-423.840843	352.175867	736.657098	-414.971592	194.338450	580.382134	-402.913481	223.282996	587.000111	-319.651506	139.307832	546.908989	-360.733612	414.038910	507.846080	-369.985420	306.969465	494.219789	-434.907959	NaN	NaN	NaN	-12.072686	84.735562	-453.759324	-20.345588	81.006145	-53.541811	
2	0.0100	448.441801	1349.596563	-76.422763	461.075555	1348.087861	-411.127791	409.114926	1417.260695	-236.951195	445.410232	1260.134431	-241.222347	531.497059	1086.648016	12.254306	706.405889	895.406835	-31.410169	528.035292	1085.986900	-510.287014	702.562690	901.597820	-446.112563	-73.672957	1141.053493	-252.316786	124.361495	1158.658255	-429.519871	86.389551	1138.427334	-95.420331	103.173292	1104.762442	-398.468877	113.011876	1089.319171	-121.713311	-44.458291	1178.150003	-199.192141	-48.505314	1185.726095	-302.936958	26.591052	1019.072304	-70.419254	45.915642	1042.059163	-460.640873	95.053383	897.444099	-54.161103	141.983834	829.836068	-62.582986	187.976110	753.224270	-76.946482	188.570805	859.452073	-71.737405	222.159961	650.600590	-100.277578	158.087498	550.277578	-68.080233	131.951875	469.416651	-69.563523	96.095241	388.171061	-81.214646	178.795033	452.639596	-104.011482	43.020328	270.011015	-100.940250	96.779266	282.979588	-174.019647	-1.373440	241.466999	-158.287556	262.811395	187.240717	-130.871254	152.109864	169.987131	-67.220601	149.693004	977.890899	-458.600294	238.655371	976.378282	-464.609525	241.568253	1030.429053	-454.647581	323.410169	966.257575	-452.938203	425.984778	914.645701	-428.577768	346.122029	836.414910	-450.804601	302.127691	762.093007	-441.471574	257.408675	690.697039	-423.847897	352.219293	736.613543	-414.966252	194.419820	580.311561	-402.929633	223.378961	586.901785	-319.631553	139.417281	546.803440	-360.756794	414.147494	507.811959	-369.976125	307.073557	494.165869	-434.906701	NaN	NaN	NaN	-12.072561	84.760105	-453.773676	-20.320494	81.008745	-53.561735	
3	0.0150	448.559435	1349.559715	-76.462046	461.096940	1348.059165	-411.212036	409.290122	1417.157835	-237.016579	445.476283	1260.077939	-241.282653	531.486278	1086.631467	12.383274	706.407654	895.412810	-31.392885	528.026577	1085.974258	-510.367271	702.558833	901.611980	-446.123342	-73.650232	1141.074080	-252.295559	124.415003	1158.667614	-429.536337	86.469555	1138.381369	-95.429208	102.904180	1104.817053	-398.714625	113.069694	1089.316901	-121.680833	-44.460431	1178.156177	-199.157315	-47.680944	1184.721290	-303.840535	26.630669	1019.044216	-70.404907	45.934526	1042.061409	-460.625187	95.104487	897.436296	-54.146651	142.036429	829.827186	-62.588422	188.035520	753.219176	-76.955544	188.620472	859.450598	-71.733613	222.236042	650.611841	-100.276551	158.148096	550.329956	-68.099317	131.968153	469.483474	-69.566761	96.075146	388.268795	-81.236907	178.826020	452.678176	-104.027656	42.956734	270.128669	-100.933279	96.536345	283.025218	-174.079898	-1.457725	241.584293	-158.286631	262.702209	187.286500	-130.870287	152.020242	170.040410	-67.230253	149.709984	977.876779	-458.591586	238.672307	976.354498	-464.599772	241.612630	1030.403725	-454.663411	323.426450	966.216061	-452.948209	426.018173	914.617037	-428.565514	346.154703	836.363336	-450.806755	302.194542	762.046132	-441.475741	257.477880	690.631018	-423.861964	352.272600	736.553169	-414.945461	194.504395	580.230224	-402.933929	223.472174	586.849176	-319.648305	139.499658	546.711993	-360.756873	414.239340	507.776025	-369.965674	307.207135	494.110828	-434.919341	NaN	NaN	NaN	-12.070253	84.767247	-453.772703	-20.324193	80.994661	-53.543834	
4	0.0200	448.664221	1349.545648	-76.484221	460.669380	1347.393743	-411.221064	409.424009	1417.090025	-237.070453	445.551091	1260.006495	-241.318873	531.424644	1086.629077	12.550207	706.397984	895.409380	-31.377836	529.017966	1086.042263	-509.344368	702.895926	902.246962	-446.112840	-73.678170	1141.396616	-251.329194	124.470315	1158.627932	-429.486578	86.631849	1138.547977	-95.286458	102.667510	1104.861472	-398.927389	113.334894	1089.350437	-121.674012	-44.407012	1178.161403	-199.136687	-46.861283	1183.723045	-304.740786	26.858681	1018.879627	-70.210407	45.962192	1042.050885	-460.617670	95.166004	897.419139	-54.142317	142.113179	829.824853	-62.587373	188.101577	753.216942	-76.963286	188.712490	859.616928	-72.528874	222.350446	650.647257	-100.299049	158.194686	550.391095	-68.118652	131.978552	469.573189	-69.566669	96.071924	388.370681	-81.235543	178.852523	452.719559	-104.026129	42.794883	270.321378	-100.900165	96.454128	283.067035	-174.104748	-1.522794	241.721637	-158.280219	262.579394	187.299843	-130.880100	151.908497	170.106802	-67.211526	149.839548	977.812033	-458.612515	238.698381	976.333568	-464.583676	241.934295	1030.399154	-454.235239	323.431283	966.203429	-452.948713	426.221977	914.623480	-428.347369	347.544912	836.494465	-451.608555	302.291275	761.960178	-441.466843	257.794120	690.529813	-423.691281	352.700816	736.571660	-414.804316	195.154668	580.381449	-402.235491	223.659955	586.876491	-319.439798	139.706220	546.603042	-360.746279	414.337010	507.736488	-369.962778	307.317395	494.055814	-434.920103	NaN	NaN	NaN	-12.071211	84.761136	-453.752654	-20.338894	81.010121	-53.546084	
5	0.0250	448.838869	1349.521759	-76.558647	460.719216	1347.206427	-411.296262	409.568696	1416.162309	-237.324313	445.576662	1259.910404	-241.396658	531.493173	1086.588035	12.701522	706.747971	895.501079	-31.407977	528.846622	1085.963821	-509.508218	702.939093	902.232971	-446.139424	-73.834467	1141.503514	-251.128232	124.631823	1157.632464	-429.690901	86.672900	1138.533199	-95.292779	102.420851	1104.891807	-399.120052	113.378418	1089.357271	-121.694028	-44.394138	1178.110702	-199.093225	-45.871145	1182.504594	-305.848979	26.879867	1018.696189	-70.045664	46.055710	1042.137131	-460.796906	95.221538	897.423914	-54.148728	142.128907	829.769049	-62.578998	188.168553	753.155213	-76.954490	188.772152	859.643359	-72.475872	222.433455	650.672458	-100.406637	158.272925	550.442747	-68.229030	132.014807	469.651938	-69.622253	96.072605	388.442416	-81.274631	178.909008	452.791364	-104.032850	42.514792	270.470791	-100.849902	96.387253	283.122111	-174.117861	-1.612300	241.764785	-158.340844	262.492005	187.320890	-130.888852	151.790046	170.192230	-67.265993	150.174538	977.766791	-458.840253	238.752860	976.159956	-464.631323	241.874337	1030.338471	-454.168808	323.882699	966.117560	-453.099027	428.127706	914.699725	-427.538685	347.456102	836.434574	-451.640077	302.381973	761.870930	-441.448984	258.061214	690.428915	-423.547512	351.777807	738.036197	-417.499405	NaN	NaN	NaN	223.749181	586.808067	-319.473804	139.491452	546.706137	-360.794647	414.278663	507.490686	-369.915104	306.335481	493.124690	-434.671571	-224.239026	893.656244	-249.970179	-11.858045	84.567218	-454.118176	-20.403394	80.914331	-53.504095	
6	0.0300	448.922574	1349.481795	-76.597853	460.405985	1347.558716	-411.361736	409.842815	1416.029220	-237.475817	445.695074	1259.898250	-241.420212	531.429298	1086.601643	12.779516	706.802908	895.571994	-31.337928	528.900784	1085.938037	-509.572621	702.269476	902.271310	-446.396363	-73.650592	1141.416322	-251.413914	124.700440	1157.519240	-429.672989	86.757901	1138.510699	-95.289295	102.282841	1104.896020	-399.222573	113.421894	1089.337689	-121.703454	-44.312977	1178.230736	-199.122774	-44.943490	1181.367276	-306.888241	26.920835	1019.002515	-70.444445	46.116475	1042.072980	-460.418569	95.277464	897.404067	-54.148784	142.277845	829.875491	-62.642390	188.318830	753.291916	-77.082029	188.831973	859.674490	-72.495635	222.589522	650.756705	-100.212329	158.344900	550.544190	-68.059642	132.081252	469.731774	-69.652058	96.090053	388.540266	-81.299948	178.976872	452.891184	-104.027885	42.532568	270.651298	-100.690197	96.235015	283.226328	-174.154877	-1.659425	241.951465	-158.304023	262.385676	187.316322	-130.890397	151.733293	170.288447	-67.161163	149.907356	977.775581	-458.616998	238.762924	976.162517	-464.615590	244.536606	1029.996471	-452.504995	322.952390	966.208878	-453.406533	428.214778	914.687107	-427.509798	349.181081	836.619838	-451.449400	302.430720	761.814171	-441.426264	258.283155	690.328294	-423.428666	350.003900	740.432900	-422.065593	NaN	NaN	NaN	223.817594	586.720273	-319.469179	139.646900	546.657068	-360.789543	414.971098	507.809044	-370.096677	306.748480	493.279629	-434.630171	-224.178779	893.612391	-249.976525	-12.341757	84.923643	-453.765235	-20.346244	80.922596	-53.748455	
7	0.0350	449.027694	1349.471661	-76.628843	460.375571	1347.490167	-411.471709	409.953956	1415.973787	-237.526573	445.755963	1259.858675	-241.447951	531.422492	1086.583548	12.879879	706.788069	895.571429	-31.300775	528.809218	1085.854946	-509.661596	702.227897	902.305744	-446.437682	-73.617043	1141.423503	-251.426441	124.755484	1157.533818	-429.622856	86.814460	1138.497396	-95.280386	102.196429	1104.889575	-399.276524	113.427590	1089.313523	-121.682127	-44.286315	1178.266865	-199.099711	-44.097901	1180.335801	-307.835549	26.956403	1019.012715	-70.458990	46.141905	1042.081622	-460.378309	95.335151	897.411871	-54.131934	142.352691	829.902531	-62.643919	188.407973	753.331755	-77.125516	188.899983	859.711258	-72.504648	222.722165	650.803716	-100.212341	158.435948	550.622631	-68.088194	132.138030	469.843266	-69.682441	96.109355	388.656349	-81.296560	179.042135	452.989199	-104.045000	42.507359	270.820176	-100.660763	96.110222	283.239606	-174.222290	-1.687225	242.132732	-158.296778	262.305729	187.314643	-130.888204	151.651800	170.388761	-67.150941	150.236663	977.857805	-458.810961	238.799377	976.143917	-464.619103	244.653815	1029.946808	-452.441332	322.937273	966.168155	-453.402671	428.358087	914.648278	-427.408358	349.187391	836.525930	-451.423230	301.913613	761.981722	-441.193803	258.463934	690.227920	-423.332752	347.879422	743.247887	-427.537746	NaN	NaN	NaN	223.897563	586.616513	-319.487610	139.748781	546.556972	-360.798554	415.088754	507.742571	-370.095299	307.810671	493.941585	-434.695831	-224.183303	893.610294	-249.971039	-12.276793	84.828182	-453.978543	-20.338113	80.892025	-53.791667	
